<?xml version="1.0" encoding="utf-8"?>
<!-- Generator: Adobe Illustrator 15.0.2, SVG Export Plug-In . SVG Version: 6.00 Build 0)  -->
<!DOCTYPE svg PUBLIC "-//W3C//DTD SVG 1.1//EN" "http://www.w3.org/Graphics/SVG/1.1/DTD/svg11.dtd">
<svg version="1.1" id="Layer_1" xmlns="http://www.w3.org/2000/svg" xmlns:xlink="http://www.w3.org/1999/xlink" x="0px" y="0px"
	 width="109.253px" height="125.243px" viewBox="0 0 109.253 125.243" enable-background="new 0 0 109.253 125.243"
	 xml:space="preserve">
<path fill="#005B8F" d="M80.161,105.485c-2.594-1.292-4.664-3.301-6.217-6.021v19.227c0,1.326-0.353,2.515-1.045,3.564
	c6.767-2.271,13.293-5.854,18.988-11.135c2.135-1.979,3.995-3.979,5.635-6.006c-2.625,1.407-5.562,2.116-8.816,2.116
	C85.465,107.232,82.618,106.653,80.161,105.485z"/>
<path fill="#005B8F" d="M84.821,64.891c-3.496,0-6.215,1.363-8.156,4.078c-1.815,2.465-2.721,6.35-2.721,11.657
	c0,4.919,0.972,8.61,2.914,11.069c1.943,2.721,4.725,4.079,8.351,4.079c3.366,0,6.022-1.358,7.963-4.079
	c1.942-2.721,2.916-6.408,2.916-11.069c0-5.052-0.974-8.938-2.916-11.657C91.231,66.255,88.444,64.891,84.821,64.891z"/>
<path fill="#005B8F" d="M68.7,58.388c5.307-3.303,11.07-4.953,17.287-4.953c3.234,0,6.506,0.617,9.807,1.843
	c3.304,1.232,5.926,3.014,7.867,5.342c3.043,3.959,4.878,8.807,5.535,14.515c0.209-4.468-0.16-8.993-0.957-13.415
	c-1.492-8.241-5.254-16.91-11.272-24.627c-6.681-8.553-15.474-14.439-23.581-17.84c-2.059-0.864-4.229-1.54-6.273-2.696
	C60.366,12.748,55.375,6.548,50.16,0c-1.3,4.312-0.835,8.854-4.24,12.808c-1.711,1.984-4.484,3.609-6.765,5.073
	c-2.32,1.497-4.749,2.705-6.852,3.752c-4.724,2.354-9.423,5.398-13.614,8.993C9.488,38.54,4.415,47.868,2.097,57.012
	C0.306,64.127-0.47,70.876,0.292,77.667c0.25,2.215,0.867,4.454,1.457,6.868c2.199,9.021,6.851,18.812,16.313,26.971
	c1.925,1.668,4.05,3.275,6.027,4.559c11.553,7.459,24.442,10.168,36.646,8.863V76.934C60.735,67.874,63.389,61.689,68.7,58.388z"/>
<path fill="#0071BA" d="M50.16-0.028c5.215,6.548,10.206,12.749,16.952,16.557c2.047,1.156,4.215,1.833,6.274,2.695
	c7.278,3.054,15.56,7.752,21.535,15.244C103.085,44.7,92,68.387,65.362,85.311c-7.078,4.498-29.212,18.814-44.624,18.184
	c-8.111-0.335-12.943-3.311-15.677-9.331c-1.473-3.244-2.543-6.495-3.312-9.656c-0.59-2.414-1.207-4.651-1.457-6.867
	c-0.763-6.789,0.013-13.538,1.805-20.655c2.316-9.142,7.391-18.472,16.592-26.384c4.191-3.596,8.89-6.641,13.614-8.994
	c2.103-1.047,4.532-2.256,6.852-3.752c2.281-1.464,5.053-3.089,6.765-5.072C49.325,8.826,48.86,4.284,50.16-0.028z"/>
<path fill="#FFFFFF" d="M109.196,75.133c-0.657-5.708-2.492-10.556-5.535-14.515c-1.941-2.328-4.563-4.108-7.867-5.342
	c-3.301-1.226-6.572-1.843-9.807-1.843c-6.217,0-11.98,1.65-17.287,4.953c-5.311,3.303-7.963,9.486-7.963,18.547v47.994
	c2.264-0.242,4.506-0.606,6.709-1.121c1.828-0.426,3.647-0.944,5.453-1.551c0.693-1.051,1.045-2.238,1.045-3.564V99.465
	c1.554,2.72,3.623,4.729,6.217,6.021c2.457,1.168,5.305,1.747,8.543,1.747c3.255,0,6.191-0.709,8.816-2.116
	c4.805-5.938,7.676-12.102,9.725-18.611C108.405,82.829,109.016,79.003,109.196,75.133z M93.171,91.696
	c-1.94,2.721-4.597,4.08-7.963,4.08c-3.626,0-6.407-1.359-8.351-4.08c-1.942-2.459-2.914-6.15-2.914-11.069
	c0-5.309,0.904-9.192,2.721-11.657c1.941-2.715,4.66-4.078,8.156-4.078c3.625,0,6.41,1.363,8.351,4.078
	c1.942,2.72,2.916,6.605,2.916,11.657C96.087,85.288,95.114,88.976,93.171,91.696z"/>
</svg>
